<svg width="1400" height="360" viewBox="0 0 1400 360" fill="none" xmlns="http://www.w3.org/2000/svg" role="img" aria-label="Auto Responder Shopee EduhCommerce">
  <defs>
    <linearGradient id="bg" x1="0" y1="0" x2="1400" y2="360" gradientUnits="userSpaceOnUse">
      <stop stop-color="#EE4D2D"/>
      <stop offset="0.55" stop-color="#FF7548"/>
      <stop offset="1" stop-color="#FFB199"/>
    </linearGradient>
    <radialGradient id="glow" cx="0" cy="0" r="1" gradientUnits="userSpaceOnUse" gradientTransform="translate(1160 58) rotate(128) scale(320 275)">
      <stop stop-color="#FFFFFF" stop-opacity="0.65"/>
      <stop offset="1" stop-color="#FFFFFF" stop-opacity="0"/>
    </radialGradient>
    <filter id="shadow" x="-20%" y="-20%" width="140%" height="140%">
      <feDropShadow dx="0" dy="12" stdDeviation="16" flood-color="#9C2F1D" flood-opacity="0.25"/>
    </filter>
  </defs>
  <rect width="1400" height="360" rx="34" fill="url(#bg)"/>
  <rect width="1400" height="360" rx="34" fill="url(#glow)"/>
  <circle cx="1225" cy="285" r="145" fill="#fff" opacity="0.10"/>
  <circle cx="1140" cy="85" r="72" fill="#fff" opacity="0.12"/>
  <path d="M1036 283C1122 237 1220 232 1317 268" stroke="#fff" stroke-width="16" stroke-linecap="round" opacity="0.18"/>

  <g filter="url(#shadow)">
    <rect x="92" y="67" width="230" height="230" rx="54" fill="#fff"/>
    <path d="M154 152h106l-10 96H164l-10-96Z" fill="#EE4D2D"/>
    <path d="M180 151v-20c0-20 16-36 36-36s36 16 36 36v20" stroke="#EE4D2D" stroke-width="14" stroke-linecap="round" fill="none"/>
    <rect x="178" y="176" width="58" height="48" rx="14" fill="#fff"/>
    <circle cx="194" cy="199" r="5" fill="#EE4D2D"/>
    <circle cx="220" cy="199" r="5" fill="#EE4D2D"/>
    <path d="M193 218c9 8 21 8 30 0" stroke="#EE4D2D" stroke-width="5" stroke-linecap="round"/>
    <path d="M176 182l-18-13M238 182l18-13" stroke="#fff" stroke-width="8" stroke-linecap="round"/>
  </g>

  <text x="380" y="132" font-family="Inter, Segoe UI, Arial, sans-serif" font-size="58" font-weight="800" fill="#fff">Auto Responder Shopee</text>
  <text x="382" y="188" font-family="Inter, Segoe UI, Arial, sans-serif" font-size="28" font-weight="600" fill="#fff" opacity="0.92">Extensão gratuita e open source para vendedores Shopee</text>
  <g font-family="Inter, Segoe UI, Arial, sans-serif" font-size="22" font-weight="700" fill="#EE4D2D">
    <rect x="382" y="226" width="180" height="42" rx="21" fill="#fff" opacity="0.95"/>
    <text x="410" y="254">⭐ Por nota</text>
    <rect x="582" y="226" width="164" height="42" rx="21" fill="#fff" opacity="0.95"/>
    <text x="610" y="254">🧪 Teste</text>
    <rect x="766" y="226" width="214" height="42" rx="21" fill="#fff" opacity="0.95"/>
    <text x="794" y="254">📊 Progresso</text>
    <rect x="1000" y="226" width="214" height="42" rx="21" fill="#fff" opacity="0.95"/>
    <text x="1028" y="254">🔒 Privacidade</text>
  </g>
</svg>
